<svg width="16" height="16" viewBox="0 0 16 16" fill="none" xmlns="http://www.w3.org/2000/svg">
  <path d="M8 1C11.8658 1.00026 15 4.13417 15 8C15 11.8658 11.8658 14.9997 8 15C4.13401 15 0.999023 11.866 0.999023 8C0.999023 4.13401 4.13401 1 8 1ZM8 2.25C4.82436 2.25 2.25 4.82436 2.25 8C2.25 11.1756 4.82436 13.75 8 13.75C11.1754 13.7497 13.75 11.1755 13.75 8C13.75 4.82452 11.1754 2.25026 8 2.25ZM5.68164 5.64062C5.92996 5.40115 6.32575 5.40711 6.56543 5.65527L8.01465 7.15625L9.51758 5.70703C9.76572 5.46747 10.1616 5.47391 10.4014 5.72168C10.641 5.96986 10.6346 6.36568 10.3867 6.60547L8.88281 8.05664L10.3359 9.56152C10.5754 9.80962 10.5689 10.2055 10.3213 10.4453C10.0731 10.6849 9.67729 10.6785 9.4375 10.4307L7.9834 8.9248L6.48047 10.377C6.23216 10.6166 5.83641 10.6096 5.59668 10.3613C5.35711 10.1131 5.36322 9.71727 5.61133 9.47754L7.11523 8.02539L5.66602 6.52441C5.42629 6.27611 5.43339 5.88038 5.68164 5.64062Z" fill="#E62C4B"/>
</svg>
