<svg width="48" height="48" viewBox="0 0 48 48" fill="none" xmlns="http://www.w3.org/2000/svg">
<path d="M38.859 18.2037L38.7465 18.3154C36.4347 20.6107 32.6916 20.6107 30.3797 18.3154C28.0608 16.013 28.0608 12.2747 30.3797 9.97234L31.1026 9.25452C30.6276 9.17964 30.1398 9.14063 29.6418 9.14062C24.539 9.14062 20.4242 13.2443 20.4242 18.2796C20.4242 19.3285 20.6017 20.3328 20.9273 21.2666C21.3042 22.3476 21.1233 23.6719 20.1912 24.5973L9.82704 34.8873C8.91179 35.7961 8.91186 37.264 9.82704 38.1726C10.7493 39.0883 12.2499 39.0883 13.1723 38.1725L23.6645 27.7553L23.7067 27.7142C24.5837 26.8753 25.7978 26.6828 26.8242 26.9848L26.8737 26.9998L26.9556 27.0249C27.8033 27.2804 28.7047 27.4185 29.6418 27.4185C34.7446 27.4185 38.8594 23.3149 38.8594 18.2796C38.8594 18.2542 38.8592 18.2289 38.859 18.2037ZM42.4219 18.2796C42.4219 25.3064 36.688 30.981 29.6418 30.981C28.3789 30.981 27.1559 30.7983 25.9995 30.4571L15.6822 40.7007V40.7007C13.3888 42.9776 9.68686 42.9955 7.37146 40.7541L7.31703 40.7007C4.99847 38.3987 4.99852 34.6613 7.31698 32.3593L7.31703 32.3592L17.4992 22.2499C17.0852 20.9987 16.8617 19.6634 16.8617 18.2796C16.8617 11.2527 22.5956 5.57812 29.6418 5.57812C30.8744 5.57813 32.0691 5.75207 33.2011 6.07773C35.6262 6.77541 35.7967 9.61418 34.3784 11.0224L32.8897 12.5004C31.9741 13.4095 31.9741 14.8782 32.8897 15.7873C33.8124 16.7034 35.3138 16.7034 36.2365 15.7873L37.2783 14.7529C38.0669 13.9699 39.1692 13.6963 40.163 13.9533C41.1751 14.2151 42.0409 15.0291 42.2535 16.2167L42.2631 16.2736L42.2821 16.3965C42.3743 17.0118 42.4219 17.6407 42.4219 18.2796Z" fill="#545454"/>
</svg>
