<svg width="15" height="15" viewBox="0 0 15 15" fill="none" xmlns="http://www.w3.org/2000/svg">
<rect width="15" height="15" fill="#F5F5F5"/>
<g id="Group 2147228516">
<g id="&#232;&#161;&#165;&#229;&#133;&#133; &#230;&#144;&#156;&#231;&#180;&#162;/&#230;&#137;&#185;&#233;&#135;&#143;&#231;&#173;&#137;&#229;&#138;&#159;&#232;&#131;&#189;">
<rect width="3117" height="1233" transform="translate(-1055.54 -406.663)" fill="white"/>
<g id="Frame 2147228354">
<mask id="path-1-inside-1_17_12715" fill="white">
<path d="M-31.5374 -203.663H248.463V695.337H-31.5374V-203.663Z"/>
</mask>
<path d="M-31.5374 -203.663H248.463V695.337H-31.5374V-203.663Z" fill="#F7F9FA"/>
<path d="M248.463 -203.663H247.463V695.337H248.463H249.463V-203.663H248.463Z" fill="#E8E8E8" mask="url(#path-1-inside-1_17_12715)"/>
<g id="Group 2147228505">
<g id="icon/Currency/Search">
<path id="&#229;&#189;&#162;&#231;&#138;&#182;" d="M6.64966 0.902832C9.81533 0.902971 12.3811 3.46955 12.3811 6.63525C12.381 8.01525 11.8937 9.28175 11.0813 10.271L13.6467 12.8364L12.8362 13.647L10.2688 11.0796C9.2819 11.8842 8.02227 12.3666 6.64966 12.3667C3.48396 12.3667 0.917375 9.80092 0.917236 6.63525C0.917236 3.46947 3.48387 0.902832 6.64966 0.902832ZM6.64966 2.04932C4.11703 2.04932 2.06372 4.10262 2.06372 6.63525C2.06386 9.16777 4.11711 11.2212 6.64966 11.2212C9.18208 11.2211 11.2355 9.16768 11.2356 6.63525C11.2356 4.10271 9.18217 2.04946 6.64966 2.04932Z" fill="#BFBFBF"/>
</g>
</g>
</g>
</g>
</g>
</svg>
