<svg width="13" height="13" viewBox="0 0 13 13" fill="none" xmlns="http://www.w3.org/2000/svg">
<rect width="13" height="13" fill="#F5F5F5"/>
<g id="Group 2147228516">
<g id="&#229;&#183;&#166;&#228;&#190;&#167;&#229;&#175;&#188;&#232;&#136;&#170;&#229;&#144;&#184;&#233;&#161;&#182;&#232;&#167;&#132;&#229;&#136;&#153;">
<rect width="2498" height="1080" transform="translate(-1000 -773.561)" fill="white"/>
<g id="Group 2147228282">
<g id="Frame 2147227256">
<mask id="path-1-inside-1_17_12715" fill="white">
<path d="M-28 -655.875H252V221.439H-28V-655.875Z"/>
</mask>
<path d="M-28 -655.875H252V221.439H-28V-655.875Z" fill="#F7F9FA"/>
<path d="M252 -655.875H251V221.439H252H253V-655.875H252Z" fill="#E8E8E8" mask="url(#path-1-inside-1_17_12715)"/>
<g id="Frame 15">
<g id="Frame 10">
<g id="Frame 12">
<g id="Frame 2147227278">
<g id="Alarm-clock (&#233;&#151;&#185;&#233;&#146;&#159;)">
<path id="Vector" d="M6.12498 10.8767C8.48939 10.8767 10.4061 8.96001 10.4061 6.59563C10.4061 4.23124 8.48939 2.31451 6.12498 2.31451C3.76059 2.31451 1.84387 4.23124 1.84387 6.59563C1.84387 8.96001 3.76059 10.8767 6.12498 10.8767Z" stroke="#BFBFBF" stroke-width="0.872813" stroke-linejoin="round"/>
<path id="Vector_2" d="M6.06882 4.10956L6.06854 6.68028L7.88349 8.49523" stroke="#BFBFBF" stroke-width="0.872813" stroke-linecap="round" stroke-linejoin="round"/>
<path id="Vector_3" d="M1.45471 2.62589L3.08932 1.45831" stroke="#BFBFBF" stroke-width="0.872813" stroke-linecap="round" stroke-linejoin="round"/>
<path id="Vector_4" d="M10.7953 2.62589L9.16071 1.45831" stroke="#BFBFBF" stroke-width="0.872813" stroke-linecap="round" stroke-linejoin="round"/>
</g>
</g>
</g>
</g>
</g>
</g>
</g>
</g>
</g>
</svg>
